<?xml version="1.0" encoding="UTF-8" standalone="no"?>
<!-- Created with matplotlib (https://matplotlib.org/) -->

<svg
   height="345.6pt"
   version="1.1"
   viewBox="0 0 460.8 345.6"
   width="460.8pt"
   id="svg670"
   sodipodi:docname="models.svg"
   inkscape:version="1.2.1 (9c6d41e4, 2022-07-14)"
   xmlns:inkscape="http://www.inkscape.org/namespaces/inkscape"
   xmlns:sodipodi="http://sodipodi.sourceforge.net/DTD/sodipodi-0.dtd"
   xmlns:xlink="http://www.w3.org/1999/xlink"
   xmlns="http://www.w3.org/2000/svg"
   xmlns:svg="http://www.w3.org/2000/svg">
  <sodipodi:namedview
     id="namedview672"
     pagecolor="#ffffff"
     bordercolor="#000000"
     borderopacity="0.25"
     inkscape:showpageshadow="2"
     inkscape:pageopacity="0.0"
     inkscape:pagecheckerboard="0"
     inkscape:deskcolor="#d1d1d1"
     inkscape:document-units="pt"
     showgrid="false"
     inkscape:zoom="0.51215277"
     inkscape:cx="307.52543"
     inkscape:cy="231.37628"
     inkscape:window-width="1920"
     inkscape:window-height="1027"
     inkscape:window-x="1440"
     inkscape:window-y="25"
     inkscape:window-maximized="1"
     inkscape:current-layer="layer5" />
  <defs
     id="defs134">
    <style
       type="text/css"
       id="style132">
*{stroke-linecap:butt;stroke-linejoin:round;}
  </style>
  </defs>
  <g
     inkscape:groupmode="layer"
     id="layer1"
     inkscape:label="axis"
     style="display:inline">
    <g
       id="patch_1"
       style="display:inline"
       sodipodi:insensitive="true">
      <path
         d="M 0,345.6 H 460.8 V 0 H 0 Z"
         style="display:inline;fill:#ffffff"
         id="path136"
         inkscape:label="path136" />
    </g>
    <g
       id="patch_2">
      <path
         d="M 62.642,299.22 H 447.84 V 12.96 H 62.642 Z"
         style="fill:#ffffff"
         id="path139" />
    </g>
    <g
       id="matplotlib.axis_1">
      <g
         id="xtick_1">
        <g
           id="line2d_1" />
        <g
           id="text_1">
          <!--    Convex -->
          <defs
             id="defs150">
            <path
               id="DejaVuSans-32"
               d="" />
            <path
               d="M 64.40625,67.28125 V 56.890625 q -4.984375,4.640625 -10.625,6.921875 -5.640625,2.296875 -11.984375,2.296875 -12.5,0 -19.140625,-7.640625 -6.640625,-7.640625 -6.640625,-22.09375 0,-14.40625 6.640625,-22.046875 Q 29.296875,6.6875 41.796875,6.6875 q 6.34375,0 11.984375,2.296875 5.640625,2.296875 10.625,6.9375 V 5.609375 Q 59.234375,2.09375 53.4375,0.328125 q -5.78125,-1.75 -12.21875,-1.75 -16.5625,0 -26.09375,10.125 Q 5.609375,18.84375 5.609375,36.375 q 0,17.578125 9.515625,27.703125 9.53125,10.140625 26.09375,10.140625 6.53125,0 12.3125,-1.734375 5.796875,-1.734375 10.875,-5.203125 z"
               id="DejaVuSans-67" />
            <path
               d="m 30.609375,48.390625 q -7.21875,0 -11.421875,-5.640625 -4.203125,-5.640625 -4.203125,-15.453125 0,-9.8125 4.171875,-15.453125 4.1875,-5.640625 11.453125,-5.640625 7.1875,0 11.375,5.65625 4.203125,5.671875 4.203125,15.4375 0,9.71875 -4.203125,15.40625 -4.1875,5.6875 -11.375,5.6875 z m 0,7.609375 q 11.71875,0 18.40625,-7.625 6.703125,-7.609375 6.703125,-21.078125 0,-13.421875 -6.703125,-21.078125 -6.6875,-7.640625 -18.40625,-7.640625 -11.765625,0 -18.4375,7.640625 -6.65625,7.65625 -6.65625,21.078125 0,13.46875 6.65625,21.078125 Q 18.84375,56 30.609375,56 Z"
               id="DejaVuSans-111" />
            <path
               d="M 54.890625,33.015625 V 0 H 45.90625 v 32.71875 q 0,7.765625 -3.03125,11.609375 -3.03125,3.859375 -9.078125,3.859375 -7.28125,0 -11.484375,-4.640625 -4.203125,-4.625 -4.203125,-12.640625 V 0 h -9.03125 v 54.6875 h 9.03125 v -8.5 q 3.234375,4.9375 7.59375,7.375 4.375,2.4375 10.09375,2.4375 9.421875,0 14.25,-5.828125 4.84375,-5.828125 4.84375,-17.15625 z"
               id="DejaVuSans-110" />
            <path
               d="M 2.984375,54.6875 H 12.5 L 29.59375,8.796875 46.6875,54.6875 h 9.515625 L 35.6875,0 H 23.484375 Z"
               id="DejaVuSans-118" />
            <path
               d="m 56.203125,29.59375 v -4.390625 h -41.3125 q 0.59375,-9.28125 5.59375,-14.140625 5,-4.859375 13.9375,-4.859375 5.171875,0 10.03125,1.265625 4.859375,1.265625 9.65625,3.8125 v -8.5 q -4.84375,-2.046875 -9.921875,-3.125 -5.078125,-1.078125 -10.296875,-1.078125 -13.09375,0 -20.734375,7.609375 -7.640625,7.625 -7.640625,20.625 0,13.421875 7.25,21.296875 Q 20.015625,56 32.328125,56 q 11.03125,0 17.453125,-7.109375 6.421875,-7.09375 6.421875,-19.296875 z m -8.984375,2.640625 q -0.09375,7.359375 -4.125,11.75 -4.03125,4.40625 -10.671875,4.40625 -7.515625,0 -12.03125,-4.25 -4.515625,-4.25 -5.203125,-11.96875 z"
               id="DejaVuSans-101" />
            <path
               d="M 54.890625,54.6875 35.109375,28.078125 55.90625,0 H 45.3125 L 29.390625,21.484375 13.484375,0 H 2.875 L 24.125,28.609375 4.6875,54.6875 h 10.59375 l 14.5,-19.484375 14.5,19.484375 z"
               id="DejaVuSans-120" />
          </defs>
          <g
             transform="matrix(0.12,0,0,-0.12,43.610107,311.83812)"
             id="g170">
            <use
               xlink:href="#DejaVuSans-32"
               id="use152" />
            <use
               x="31.787109"
               xlink:href="#DejaVuSans-32"
               id="use154" />
            <use
               x="63.574219"
               xlink:href="#DejaVuSans-32"
               id="use156" />
            <use
               x="95.361328"
               xlink:href="#DejaVuSans-67"
               id="use158" />
            <use
               x="165.18555"
               xlink:href="#DejaVuSans-111"
               id="use160" />
            <use
               x="226.36719"
               xlink:href="#DejaVuSans-110"
               id="use162" />
            <use
               x="289.74609"
               xlink:href="#DejaVuSans-118"
               id="use164" />
            <use
               x="348.92578"
               xlink:href="#DejaVuSans-101"
               id="use166" />
            <use
               x="410.43359"
               xlink:href="#DejaVuSans-120"
               id="use168" />
          </g>
        </g>
      </g>
      <g
         id="xtick_2">
        <g
           id="line2d_2" />
      </g>
      <g
         id="xtick_3">
        <g
           id="line2d_3" />
      </g>
      <g
         id="xtick_4">
        <g
           id="line2d_4" />
        <g
           id="text_2">
          <!-- Planar -->
          <defs
             id="defs183">
            <path
               d="M 19.671875,64.796875 V 37.40625 h 12.40625 q 6.890625,0 10.640625,3.5625 3.765625,3.5625 3.765625,10.15625 0,6.546875 -3.765625,10.109375 -3.75,3.5625 -10.640625,3.5625 z M 9.8125,72.90625 h 22.265625 q 12.265625,0 18.53125,-5.546875 6.28125,-5.546875 6.28125,-16.234375 0,-10.796875 -6.28125,-16.3125 -6.265625,-5.515625 -18.53125,-5.515625 H 19.671875 V 0 H 9.8125 Z"
               id="DejaVuSans-80" />
            <path
               d="M 9.421875,75.984375 H 18.40625 V 0 H 9.421875 Z"
               id="DejaVuSans-108" />
            <path
               d="m 34.28125,27.484375 q -10.890625,0 -15.09375,-2.484375 -4.203125,-2.484375 -4.203125,-8.5 0,-4.78125 3.15625,-7.59375 3.15625,-2.796875 8.5625,-2.796875 7.484375,0 12,5.296875 4.515625,5.296875 4.515625,14.078125 v 2 z m 17.921875,3.71875 V 0 H 43.21875 v 8.296875 q -3.078125,-4.96875 -7.671875,-7.34375 -4.59375,-2.375 -11.234375,-2.375 -8.390625,0 -13.359375,4.71875 Q 6,8.015625 6,15.921875 q 0,9.21875 6.171875,13.90625 6.1875,4.6875 18.4375,4.6875 H 43.21875 v 0.890625 q 0,6.203125 -4.078125,9.59375 -4.078125,3.390625 -11.453125,3.390625 -4.6875,0 -9.140625,-1.125 -4.4375,-1.125 -8.53125,-3.375 v 8.3125 q 4.921875,1.90625 9.5625,2.84375 Q 24.21875,56 28.609375,56 q 11.875,0 17.734375,-6.15625 5.859375,-6.140625 5.859375,-18.640625 z"
               id="DejaVuSans-97" />
            <path
               d="m 41.109375,46.296875 q -1.515625,0.875 -3.296875,1.28125 Q 36.03125,48 33.890625,48 26.265625,48 22.1875,43.046875 18.109375,38.09375 18.109375,28.8125 V 0 h -9.03125 v 54.6875 h 9.03125 v -8.5 q 2.84375,4.984375 7.375,7.390625 Q 30.03125,56 36.53125,56 q 0.921875,0 2.046875,-0.125 1.125,-0.109375 2.484375,-0.359375 z"
               id="DejaVuSans-114" />
          </defs>
          <g
             transform="matrix(0.12,0,0,-0.12,190.0642,311.83812)"
             id="g197">
            <use
               xlink:href="#DejaVuSans-80"
               id="use185" />
            <use
               x="60.302734"
               xlink:href="#DejaVuSans-108"
               id="use187" />
            <use
               x="88.085938"
               xlink:href="#DejaVuSans-97"
               id="use189" />
            <use
               x="149.36523"
               xlink:href="#DejaVuSans-110"
               id="use191" />
            <use
               x="212.74414"
               xlink:href="#DejaVuSans-97"
               id="use193" />
            <use
               x="274.02344"
               xlink:href="#DejaVuSans-114"
               id="use195" />
          </g>
        </g>
      </g>
      <g
         id="xtick_5">
        <g
           id="line2d_5" />
      </g>
      <g
         id="xtick_6">
        <g
           id="line2d_6" />
      </g>
      <g
         id="xtick_7">
        <g
           id="line2d_7" />
        <g
           id="text_3">
          <!--                       Concave -->
          <defs
             id="defs207">
            <path
               d="M 48.78125,52.59375 V 44.1875 q -3.8125,2.109375 -7.640625,3.15625 -3.828125,1.046875 -7.734375,1.046875 -8.75,0 -13.59375,-5.546875 -4.828125,-5.53125 -4.828125,-15.546875 0,-10.015625 4.828125,-15.5625 4.84375,-5.53125 13.59375,-5.53125 3.90625,0 7.734375,1.046875 3.828125,1.046875 7.640625,3.15625 v -8.3125 q -3.765625,-1.75 -7.796875,-2.625 -4.015625,-0.890625 -8.5625,-0.890625 -12.359375,0 -19.640625,7.765625 -7.265625,7.765625 -7.265625,20.953125 0,13.375 7.34375,21.03125 Q 20.21875,56 33.015625,56 q 4.140625,0 8.09375,-0.859375 3.953125,-0.84375 7.671875,-2.546875 z"
               id="DejaVuSans-99" />
          </defs>
          <g
             transform="matrix(0.12,0,0,-0.12,278.32205,311.83812)"
             id="g267">
            <use
               xlink:href="#DejaVuSans-32"
               id="use209" />
            <use
               x="31.787109"
               xlink:href="#DejaVuSans-32"
               id="use211" />
            <use
               x="63.574219"
               xlink:href="#DejaVuSans-32"
               id="use213" />
            <use
               x="95.361328"
               xlink:href="#DejaVuSans-32"
               id="use215" />
            <use
               x="127.14844"
               xlink:href="#DejaVuSans-32"
               id="use217" />
            <use
               x="158.93555"
               xlink:href="#DejaVuSans-32"
               id="use219" />
            <use
               x="190.72266"
               xlink:href="#DejaVuSans-32"
               id="use221" />
            <use
               x="222.50977"
               xlink:href="#DejaVuSans-32"
               id="use223" />
            <use
               x="254.29688"
               xlink:href="#DejaVuSans-32"
               id="use225" />
            <use
               x="286.08398"
               xlink:href="#DejaVuSans-32"
               id="use227" />
            <use
               x="317.87109"
               xlink:href="#DejaVuSans-32"
               id="use229" />
            <use
               x="349.6582"
               xlink:href="#DejaVuSans-32"
               id="use231" />
            <use
               x="381.44531"
               xlink:href="#DejaVuSans-32"
               id="use233" />
            <use
               x="413.23242"
               xlink:href="#DejaVuSans-32"
               id="use235" />
            <use
               x="445.01953"
               xlink:href="#DejaVuSans-32"
               id="use237" />
            <use
               x="476.80664"
               xlink:href="#DejaVuSans-32"
               id="use239" />
            <use
               x="508.59375"
               xlink:href="#DejaVuSans-32"
               id="use241" />
            <use
               x="540.38086"
               xlink:href="#DejaVuSans-32"
               id="use243" />
            <use
               x="572.16797"
               xlink:href="#DejaVuSans-32"
               id="use245" />
            <use
               x="603.95508"
               xlink:href="#DejaVuSans-32"
               id="use247" />
            <use
               x="635.74219"
               xlink:href="#DejaVuSans-32"
               id="use249" />
            <use
               x="667.5293"
               xlink:href="#DejaVuSans-32"
               id="use251" />
            <use
               x="699.31641"
               xlink:href="#DejaVuSans-67"
               id="use253" />
            <use
               x="769.14062"
               xlink:href="#DejaVuSans-111"
               id="use255" />
            <use
               x="830.32227"
               xlink:href="#DejaVuSans-110"
               id="use257" />
            <use
               x="893.70117"
               xlink:href="#DejaVuSans-99"
               id="use259" />
            <use
               x="948.68164"
               xlink:href="#DejaVuSans-97"
               id="use261" />
            <use
               x="1009.9609"
               xlink:href="#DejaVuSans-118"
               id="use263" />
            <use
               x="1069.1406"
               xlink:href="#DejaVuSans-101"
               id="use265" />
          </g>
        </g>
      </g>
      <g
         id="xtick_8">
        <g
           id="line2d_8" />
      </g>
      <g
         id="xtick_9">
        <g
           id="line2d_9" />
      </g>
      <g
         id="text_4">
        <!-- Tan curvature -->
        <defs
           id="defs278">
          <path
             d="M -0.296875,72.90625 H 61.375 v -8.3125 H 35.5 V 0 H 25.59375 V 64.59375 H -0.296875 Z"
             id="DejaVuSans-84" />
          <path
             d="M 8.5,21.578125 V 54.6875 h 8.984375 V 21.921875 q 0,-7.765625 3.015625,-11.65625 3.03125,-3.875 9.09375,-3.875 7.265625,0 11.484375,4.640625 4.234375,4.640625 4.234375,12.65625 v 31 h 8.984375 V 0 H 45.3125 V 8.40625 Q 42.046875,3.421875 37.71875,1 33.40625,-1.421875 27.6875,-1.421875 18.265625,-1.421875 13.375,4.4375 8.5,10.296875 8.5,21.578125 Z M 31.109375,56 Z"
             id="DejaVuSans-117" />
          <path
             d="M 18.3125,70.21875 V 54.6875 h 18.5 v -6.984375 h -18.5 v -29.6875 q 0,-6.6875 1.828125,-8.59375 1.828125,-1.90625 7.453125,-1.90625 H 36.8125 V 0 H 27.59375 Q 17.1875,0 13.234375,3.875 9.28125,7.765625 9.28125,18.015625 v 29.6875 H 2.6875 V 54.6875 h 6.59375 v 15.53125 z"
             id="DejaVuSans-116" />
        </defs>
        <g
           transform="matrix(0.12,0,0,-0.12,213.09756,327.45187)"
           id="g306">
          <use
             xlink:href="#DejaVuSans-84"
             id="use280" />
          <use
             x="60.833984"
             xlink:href="#DejaVuSans-97"
             id="use282" />
          <use
             x="122.11328"
             xlink:href="#DejaVuSans-110"
             id="use284" />
          <use
             x="185.49219"
             xlink:href="#DejaVuSans-32"
             id="use286" />
          <use
             x="217.2793"
             xlink:href="#DejaVuSans-99"
             id="use288" />
          <use
             x="272.25977"
             xlink:href="#DejaVuSans-117"
             id="use290" />
          <use
             x="335.63867"
             xlink:href="#DejaVuSans-114"
             id="use292" />
          <use
             x="376.75195"
             xlink:href="#DejaVuSans-118"
             id="use294" />
          <use
             x="435.93164"
             xlink:href="#DejaVuSans-97"
             id="use296" />
          <use
             x="497.21094"
             xlink:href="#DejaVuSans-116"
             id="use298" />
          <use
             x="536.41992"
             xlink:href="#DejaVuSans-117"
             id="use300" />
          <use
             x="599.79883"
             xlink:href="#DejaVuSans-114"
             id="use302" />
          <use
             x="640.88086"
             xlink:href="#DejaVuSans-101"
             id="use304" />
        </g>
      </g>
    </g>
    <g
       id="matplotlib.axis_2">
      <g
         id="ytick_1">
        <g
           id="line2d_10">
          <defs
             id="defs311">
            <path
               d="M 0,0 H -3.5"
               id="m0ebbd04f74"
               style="stroke:#000000;stroke-width:0.8" />
          </defs>
          <g
             id="g315">
            <use
               style="stroke:#000000;stroke-width:0.8"
               x="62.641998"
               xlink:href="#m0ebbd04f74"
               y="299.22"
               id="use313" />
          </g>
        </g>
        <g
           id="text_5">
          <!-- 0 -->
          <defs
             id="defs319">
            <path
               d="m 31.78125,66.40625 q -7.609375,0 -11.453125,-7.5 Q 16.5,51.421875 16.5,36.375 q 0,-14.984375 3.828125,-22.484375 3.84375,-7.5 11.453125,-7.5 7.671875,0 11.5,7.5 3.84375,7.5 3.84375,22.484375 0,15.046875 -3.84375,22.53125 -3.828125,7.5 -11.5,7.5 z m 0,7.8125 q 12.265625,0 18.734375,-9.703125 6.46875,-9.6875 6.46875,-28.140625 0,-18.40625 -6.46875,-28.109375 -6.46875,-9.6875 -18.734375,-9.6875 -12.25,0 -18.71875,9.6875 Q 6.59375,17.96875 6.59375,36.375 q 0,18.453125 6.46875,28.140625 6.46875,9.703125 18.71875,9.703125 z"
               id="DejaVuSans-48" />
          </defs>
          <g
             transform="matrix(0.12,0,0,-0.12,48.007,303.77906)"
             id="g323">
            <use
               xlink:href="#DejaVuSans-48"
               id="use321" />
          </g>
        </g>
      </g>
      <g
         id="ytick_2">
        <g
           id="line2d_11">
          <g
             id="g329">
            <use
               style="stroke:#000000;stroke-width:0.8"
               x="62.641998"
               xlink:href="#m0ebbd04f74"
               y="260.87268"
               id="use327" />
          </g>
        </g>
        <g
           id="text_6">
          <!-- 50 -->
          <defs
             id="defs333">
            <path
               d="m 10.796875,72.90625 h 38.71875 v -8.3125 h -29.6875 V 46.734375 q 2.140625,0.734375 4.28125,1.09375 2.15625,0.359375 4.3125,0.359375 Q 40.625,48.1875 47.75,41.5 54.890625,34.8125 54.890625,23.390625 54.890625,11.625 47.5625,5.09375 40.234375,-1.421875 26.90625,-1.421875 q -4.59375,0 -9.359375,0.78125 -4.75,0.78125 -9.828125,2.34375 V 11.625 q 4.390625,-2.390625 9.078125,-3.5625 4.6875,-1.171875 9.90625,-1.171875 8.453125,0 13.375,4.4375 4.9375,4.4375 4.9375,12.0625 0,7.609375 -4.9375,12.046875 -4.921875,4.453125 -13.375,4.453125 -3.953125,0 -7.890625,-0.875 -3.921875,-0.875 -8.015625,-2.734375 z"
               id="DejaVuSans-53" />
          </defs>
          <g
             transform="matrix(0.12,0,0,-0.12,40.372,265.43174)"
             id="g339">
            <use
               xlink:href="#DejaVuSans-53"
               id="use335" />
            <use
               x="63.623047"
               xlink:href="#DejaVuSans-48"
               id="use337" />
          </g>
        </g>
      </g>
      <g
         id="ytick_3">
        <g
           id="line2d_12">
          <g
             id="g345">
            <use
               style="stroke:#000000;stroke-width:0.8"
               x="62.641998"
               xlink:href="#m0ebbd04f74"
               y="222.52536"
               id="use343" />
          </g>
        </g>
        <g
           id="text_7">
          <!-- 100 -->
          <defs
             id="defs349">
            <path
               d="m 12.40625,8.296875 h 16.109375 v 55.625 L 10.984375,60.40625 v 8.984375 l 17.4375,3.515625 H 38.28125 V 8.296875 H 54.390625 V 0 H 12.40625 Z"
               id="DejaVuSans-49" />
          </defs>
          <g
             transform="matrix(0.12,0,0,-0.12,32.737,227.08442)"
             id="g357">
            <use
               xlink:href="#DejaVuSans-49"
               id="use351" />
            <use
               x="63.623047"
               xlink:href="#DejaVuSans-48"
               id="use353" />
            <use
               x="127.24609"
               xlink:href="#DejaVuSans-48"
               id="use355" />
          </g>
        </g>
      </g>
      <g
         id="ytick_4">
        <g
           id="line2d_13">
          <g
             id="g363">
            <use
               style="stroke:#000000;stroke-width:0.8"
               x="62.641998"
               xlink:href="#m0ebbd04f74"
               y="184.17804"
               id="use361" />
          </g>
        </g>
        <g
           id="text_8">
          <!-- 150 -->
          <g
             transform="matrix(0.12,0,0,-0.12,32.737,188.7371)"
             id="g372">
            <use
               xlink:href="#DejaVuSans-49"
               id="use366" />
            <use
               x="63.623047"
               xlink:href="#DejaVuSans-53"
               id="use368" />
            <use
               x="127.24609"
               xlink:href="#DejaVuSans-48"
               id="use370" />
          </g>
        </g>
      </g>
      <g
         id="ytick_5">
        <g
           id="line2d_14">
          <g
             id="g378">
            <use
               style="stroke:#000000;stroke-width:0.8"
               x="62.641998"
               xlink:href="#m0ebbd04f74"
               y="145.83072"
               id="use376" />
          </g>
        </g>
        <g
           id="text_9">
          <!-- 200 -->
          <defs
             id="defs382">
            <path
               d="M 19.1875,8.296875 H 53.609375 V 0 H 7.328125 v 8.296875 q 5.609375,5.8125 15.296875,15.59375 9.703125,9.796875 12.1875,12.640625 4.734375,5.3125 6.609375,9 1.890625,3.6875 1.890625,7.25 0,5.8125 -4.078125,9.46875 -4.078125,3.671875 -10.625,3.671875 -4.640625,0 -9.796875,-1.609375 -5.140625,-1.609375 -11,-4.890625 v 9.96875 Q 13.765625,71.78125 18.9375,73 q 5.1875,1.21875 9.484375,1.21875 11.328125,0 18.0625,-5.671875 6.734375,-5.65625 6.734375,-15.125 0,-4.5 -1.6875,-8.53125 Q 49.859375,40.875 45.40625,35.40625 44.1875,33.984375 37.640625,27.21875 31.109375,20.453125 19.1875,8.296875 Z"
               id="DejaVuSans-50" />
          </defs>
          <g
             transform="matrix(0.12,0,0,-0.12,32.737,150.38978)"
             id="g390">
            <use
               xlink:href="#DejaVuSans-50"
               id="use384" />
            <use
               x="63.623047"
               xlink:href="#DejaVuSans-48"
               id="use386" />
            <use
               x="127.24609"
               xlink:href="#DejaVuSans-48"
               id="use388" />
          </g>
        </g>
      </g>
      <g
         id="ytick_6">
        <g
           id="line2d_15">
          <g
             id="g396">
            <use
               style="stroke:#000000;stroke-width:0.8"
               x="62.641998"
               xlink:href="#m0ebbd04f74"
               y="107.4834"
               id="use394" />
          </g>
        </g>
        <g
           id="text_10">
          <!-- 250 -->
          <g
             transform="matrix(0.12,0,0,-0.12,32.737,112.04247)"
             id="g405">
            <use
               xlink:href="#DejaVuSans-50"
               id="use399" />
            <use
               x="63.623047"
               xlink:href="#DejaVuSans-53"
               id="use401" />
            <use
               x="127.24609"
               xlink:href="#DejaVuSans-48"
               id="use403" />
          </g>
        </g>
      </g>
      <g
         id="ytick_7">
        <g
           id="line2d_16">
          <g
             id="g411">
            <use
               style="stroke:#000000;stroke-width:0.8"
               x="62.641998"
               xlink:href="#m0ebbd04f74"
               y="69.136086"
               id="use409" />
          </g>
        </g>
        <g
           id="text_11">
          <!-- 300 -->
          <defs
             id="defs415">
            <path
               d="M 40.578125,39.3125 Q 47.65625,37.796875 51.625,33 q 3.984375,-4.78125 3.984375,-11.8125 0,-10.78125 -7.421875,-16.703125 -7.421875,-5.90625 -21.09375,-5.90625 -4.578125,0 -9.4375,0.90625 -4.859375,0.90625 -10.03125,2.71875 v 9.515625 q 4.09375,-2.390625 8.96875,-3.609375 4.890625,-1.21875 10.21875,-1.21875 9.265625,0 14.125,3.65625 4.859375,3.65625 4.859375,10.640625 0,6.453125 -4.515625,10.078125 -4.515625,3.640625 -12.5625,3.640625 h -8.5 v 8.109375 h 8.890625 q 7.265625,0 11.125,2.90625 3.859375,2.90625 3.859375,8.375 0,5.609375 -3.984375,8.609375 -3.96875,3.015625 -11.390625,3.015625 -4.0625,0 -8.703125,-0.890625 Q 15.375,64.15625 9.8125,62.3125 v 8.78125 q 5.625,1.5625 10.53125,2.34375 4.90625,0.78125 9.25,0.78125 11.234375,0 17.765625,-5.109375 6.546875,-5.09375 6.546875,-13.78125 0,-6.0625 -3.46875,-10.234375 -3.46875,-4.171875 -9.859375,-5.78125 z"
               id="DejaVuSans-51" />
          </defs>
          <g
             transform="matrix(0.12,0,0,-0.12,32.737,73.695145)"
             id="g423">
            <use
               xlink:href="#DejaVuSans-51"
               id="use417" />
            <use
               x="63.623047"
               xlink:href="#DejaVuSans-48"
               id="use419" />
            <use
               x="127.24609"
               xlink:href="#DejaVuSans-48"
               id="use421" />
          </g>
        </g>
      </g>
      <g
         id="ytick_8">
        <g
           id="line2d_17">
          <g
             id="g429">
            <use
               style="stroke:#000000;stroke-width:0.8"
               x="62.641998"
               xlink:href="#m0ebbd04f74"
               y="30.788763"
               id="use427" />
          </g>
        </g>
        <g
           id="text_12">
          <!-- 350 -->
          <g
             transform="matrix(0.12,0,0,-0.12,32.737,35.347826)"
             id="g438">
            <use
               xlink:href="#DejaVuSans-51"
               id="use432" />
            <use
               x="63.623047"
               xlink:href="#DejaVuSans-53"
               id="use434" />
            <use
               x="127.24609"
               xlink:href="#DejaVuSans-48"
               id="use436" />
          </g>
        </g>
      </g>
      <g
         id="text_13">
        <!-- Crown volume $(m^3)$ -->
        <defs
           id="defs447">
          <path
             d="M 4.203125,54.6875 H 13.1875 L 24.421875,12.015625 35.59375,54.6875 H 46.1875 L 57.421875,12.015625 68.609375,54.6875 H 77.59375 L 63.28125,0 H 52.6875 L 40.921875,44.828125 29.109375,0 H 18.5 Z"
             id="DejaVuSans-119" />
          <path
             d="M 52,44.1875 Q 55.375,50.25 60.0625,53.125 64.75,56 71.09375,56 q 8.546875,0 13.1875,-5.984375 4.640625,-5.96875 4.640625,-17 V 0 h -9.03125 v 32.71875 q 0,7.859375 -2.796875,11.65625 -2.78125,3.8125 -8.484375,3.8125 -6.984375,0 -11.046875,-4.640625 -4.046875,-4.625 -4.046875,-12.640625 V 0 h -9.03125 v 32.71875 q 0,7.90625 -2.78125,11.6875 -2.78125,3.78125 -8.59375,3.78125 -6.890625,0 -10.953125,-4.65625 -4.046875,-4.65625 -4.046875,-12.625 V 0 h -9.03125 v 54.6875 h 9.03125 v -8.5 q 3.078125,5.03125 7.375,7.421875 Q 29.78125,56 35.6875,56 41.65625,56 45.828125,52.96875 50,49.953125 52,44.1875 Z"
             id="DejaVuSans-109" />
          <path
             d="M 31,75.875 Q 24.46875,64.65625 21.28125,53.65625 18.109375,42.671875 18.109375,31.390625 18.109375,20.125 21.3125,9.0625 24.515625,-2 31,-13.1875 H 23.1875 Q 15.875,-1.703125 12.234375,9.375 8.59375,20.453125 8.59375,31.390625 q 0,10.890625 3.609375,21.921875 3.625,11.046875 10.984375,22.5625 z"
             id="DejaVuSans-40" />
          <path
             d="M 89.796875,33.015625 83.40625,0 h -8.984375 l 6.296875,32.71875 q 0.390625,2.09375 0.578125,3.609375 Q 81.5,37.84375 81.5,38.921875 81.5,43.3125 79.046875,45.75 q -2.4375,2.4375 -6.828125,2.4375 -6.546875,0 -11.671875,-4.90625 -5.125,-4.90625 -6.640625,-12.765625 L 47.90625,0 H 38.921875 L 45.3125,32.71875 q 0.390625,1.796875 0.578125,3.328125 0.203125,1.546875 0.203125,2.765625 0,4.453125 -2.4375,6.90625 -2.4375,2.46875 -6.734375,2.46875 -6.640625,0 -11.78125,-4.90625 Q 20.015625,38.375 18.5,30.515625 L 12.5,0 H 3.515625 l 10.6875,54.6875 H 23.1875 l -1.703125,-8.5 q 3.65625,4.796875 8.5625,7.296875 Q 34.96875,56 40.578125,56 q 5.953125,0 9.78125,-3.125 3.84375,-3.125 4.625,-8.6875 4.09375,5.765625 9.484375,8.78125 Q 69.875,56 75.875,56 q 7.03125,0 10.859375,-4.046875 3.84375,-4.046875 3.84375,-11.46875 0,-1.609375 -0.203125,-3.546875 -0.1875,-1.921875 -0.578125,-3.921875 z"
             id="DejaVuSans-Oblique-109" />
          <path
             d="m 8.015625,75.875 h 7.8125 q 7.3125,-11.515625 10.953125,-22.5625 3.640625,-11.03125 3.640625,-21.921875 0,-10.9375 -3.640625,-22.015625 -3.640625,-11.078125 -10.953125,-22.5625 h -7.8125 Q 14.5,-2 17.703125,9.0625 20.90625,20.125 20.90625,31.390625 q 0,11.28125 -3.203125,22.265625 -3.203125,11 -9.6875,22.21875 z"
             id="DejaVuSans-41" />
        </defs>
        <g
           transform="matrix(0,-0.12,-0.12,0,26.241375,214.83)"
           id="g483">
          <use
             transform="translate(0,0.765625)"
             xlink:href="#DejaVuSans-67"
             id="use449" />
          <use
             transform="translate(69.824219,0.765625)"
             xlink:href="#DejaVuSans-114"
             id="use451" />
          <use
             transform="translate(110.9375,0.765625)"
             xlink:href="#DejaVuSans-111"
             id="use453" />
          <use
             transform="translate(172.11914,0.765625)"
             xlink:href="#DejaVuSans-119"
             id="use455" />
          <use
             transform="translate(253.90625,0.765625)"
             xlink:href="#DejaVuSans-110"
             id="use457" />
          <use
             transform="translate(317.28516,0.765625)"
             xlink:href="#DejaVuSans-32"
             id="use459" />
          <use
             transform="translate(349.07227,0.765625)"
             xlink:href="#DejaVuSans-118"
             id="use461" />
          <use
             transform="translate(408.25195,0.765625)"
             xlink:href="#DejaVuSans-111"
             id="use463" />
          <use
             transform="translate(469.43359,0.765625)"
             xlink:href="#DejaVuSans-108"
             id="use465" />
          <use
             transform="translate(497.2168,0.765625)"
             xlink:href="#DejaVuSans-117"
             id="use467" />
          <use
             transform="translate(560.5957,0.765625)"
             xlink:href="#DejaVuSans-109"
             id="use469" />
          <use
             transform="translate(658.00781,0.765625)"
             xlink:href="#DejaVuSans-101"
             id="use471" />
          <use
             transform="translate(719.53125,0.765625)"
             xlink:href="#DejaVuSans-32"
             id="use473" />
          <use
             transform="translate(751.31836,0.765625)"
             xlink:href="#DejaVuSans-40"
             id="use475" />
          <use
             transform="translate(790.33203,0.765625)"
             xlink:href="#DejaVuSans-Oblique-109"
             id="use477" />
          <use
             transform="matrix(0.7,0,0,0.7,892.39404,39.046875)"
             xlink:href="#DejaVuSans-51"
             id="use479" />
          <use
             transform="translate(939.66454,0.765625)"
             xlink:href="#DejaVuSans-41"
             id="use481" />
        </g>
      </g>
    </g>
    <g
       id="patch_3">
      <path
         d="M 62.642,299.22 V 12.96"
         style="fill:none;stroke:#000000;stroke-width:0.8;stroke-linecap:square;stroke-linejoin:miter"
         id="path499" />
    </g>
    <g
       id="patch_4">
      <path
         d="M 447.84,299.22 V 12.96"
         style="fill:none;stroke:#000000;stroke-width:0.8;stroke-linecap:square;stroke-linejoin:miter"
         id="path502" />
    </g>
    <g
       id="patch_5">
      <path
         d="M 62.642,299.22 H 447.84"
         style="fill:none;stroke:#000000;stroke-width:0.8;stroke-linecap:square;stroke-linejoin:miter"
         id="path505" />
    </g>
    <g
       id="patch_6">
      <path
         d="M 62.642,12.96 H 447.84"
         style="fill:none;stroke:#000000;stroke-width:0.8;stroke-linecap:square;stroke-linejoin:miter"
         id="path508" />
    </g>
    <g
       id="legend_1">
      <g
         id="patch_7">
        <path
           d="m 71.042,93.015 h 136.905 q 2.4,0 2.4,-2.4 V 21.36 q 0,-2.4 -2.4,-2.4 H 71.042 q -2.4,0 -2.4,2.4 v 69.255 q 0,2.4 2.4,2.4 z"
           style="opacity:0.8;fill:#ffffff;stroke:#cccccc;stroke-linejoin:miter"
           id="path511" />
      </g>
      <g
         id="line2d_22">
        <path
           d="m 73.442,28.678125 h 24"
           style="fill:none;stroke:#ff7f0e;stroke-width:1.5;stroke-linecap:square"
           id="path514" />
      </g>
      <g
         id="line2d_23" />
      <g
         id="text_14">
        <!-- Pinus sylvestris -->
        <defs
           id="defs521">
          <path
             d="M 9.421875,54.6875 H 18.40625 V 0 H 9.421875 Z m 0,21.296875 H 18.40625 V 64.59375 H 9.421875 Z"
             id="DejaVuSans-105" />
          <path
             d="m 44.28125,53.078125 v -8.5 Q 40.484375,46.53125 36.375,47.5 q -4.09375,0.984375 -8.5,0.984375 -6.6875,0 -10.03125,-2.046875 Q 14.5,44.390625 14.5,40.28125 q 0,-3.125 2.390625,-4.90625 2.390625,-1.78125 9.625,-3.390625 l 3.078125,-0.6875 Q 39.15625,29.25 43.1875,25.515625 47.21875,21.78125 47.21875,15.09375 q 0,-7.625 -6.03125,-12.078125 -6.03125,-4.4375 -16.578125,-4.4375 -4.390625,0 -9.15625,0.859375 Q 10.6875,0.296875 5.421875,2 v 9.28125 q 4.984375,-2.59375 9.8125,-3.890625 4.828125,-1.28125 9.578125,-1.28125 6.34375,0 9.75,2.171875 3.421875,2.171875 3.421875,6.125 0,3.65625 -2.46875,5.609375 -2.453125,1.953125 -10.8125,3.765625 l -3.125,0.734375 q -8.34375,1.75 -12.0625,5.390625 -3.703125,3.640625 -3.703125,9.984375 0,7.71875 5.46875,11.90625 Q 16.75,56 26.8125,56 q 4.96875,0 9.359375,-0.734375 4.40625,-0.71875 8.109375,-2.1875 z"
             id="DejaVuSans-115" />
          <path
             d="M 32.171875,-5.078125 Q 28.375,-14.84375 24.75,-17.8125 q -3.609375,-2.984375 -9.65625,-2.984375 h -7.1875 v 7.515625 h 5.28125 q 3.703125,0 5.75,1.765625 2.0625,1.75 4.546875,8.296875 L 25.09375,0.875 2.984375,54.6875 H 12.5 L 29.59375,11.921875 46.6875,54.6875 h 9.515625 z"
             id="DejaVuSans-121" />
        </defs>
        <g
           transform="matrix(0.12,0,0,-0.12,107.042,32.878125)"
           id="g555">
          <use
             xlink:href="#DejaVuSans-80"
             id="use523" />
          <use
             x="60.271484"
             xlink:href="#DejaVuSans-105"
             id="use525" />
          <use
             x="88.054688"
             xlink:href="#DejaVuSans-110"
             id="use527" />
          <use
             x="151.43359"
             xlink:href="#DejaVuSans-117"
             id="use529" />
          <use
             x="214.8125"
             xlink:href="#DejaVuSans-115"
             id="use531" />
          <use
             x="266.91211"
             xlink:href="#DejaVuSans-32"
             id="use533" />
          <use
             x="298.69922"
             xlink:href="#DejaVuSans-115"
             id="use535" />
          <use
             x="350.79883"
             xlink:href="#DejaVuSans-121"
             id="use537" />
          <use
             x="409.97852"
             xlink:href="#DejaVuSans-108"
             id="use539" />
          <use
             x="437.76172"
             xlink:href="#DejaVuSans-118"
             id="use541" />
          <use
             x="496.94141"
             xlink:href="#DejaVuSans-101"
             id="use543" />
          <use
             x="558.46484"
             xlink:href="#DejaVuSans-115"
             id="use545" />
          <use
             x="610.56445"
             xlink:href="#DejaVuSans-116"
             id="use547" />
          <use
             x="649.77344"
             xlink:href="#DejaVuSans-114"
             id="use549" />
          <use
             x="690.88672"
             xlink:href="#DejaVuSans-105"
             id="use551" />
          <use
             x="718.66992"
             xlink:href="#DejaVuSans-115"
             id="use553" />
        </g>
      </g>
      <g
         id="line2d_24">
        <path
           d="m 73.442,46.291875 h 24"
           style="fill:none;stroke:#2ca02c;stroke-width:1.5;stroke-linecap:square"
           id="path558" />
      </g>
      <g
         id="line2d_25" />
      <g
         id="text_15">
        <!-- Pinus nigra -->
        <defs
           id="defs563">
          <path
             d="m 45.40625,27.984375 q 0,9.765625 -4.03125,15.125 -4.015625,5.375 -11.296875,5.375 -7.21875,0 -11.25,-5.375 -4.03125,-5.359375 -4.03125,-15.125 0,-9.71875 4.03125,-15.09375 4.03125,-5.375 11.25,-5.375 7.28125,0 11.296875,5.375 4.03125,5.375 4.03125,15.09375 z M 54.390625,6.78125 q 0,-13.953125 -6.203125,-20.765625 -6.1875,-6.8125 -18.984375,-6.8125 -4.734375,0 -8.9375,0.703125 -4.203125,0.703125 -8.15625,2.171875 V -9.1875 q 3.953125,-2.140625 7.8125,-3.15625 3.859375,-1.03125 7.859375,-1.03125 8.84375,0 13.234375,4.609375 4.390625,4.609375 4.390625,13.9375 V 9.625 Q 42.625,4.78125 38.28125,2.390625 33.9375,0 27.875,0 17.828125,0 11.671875,7.65625 q -6.15625,7.671875 -6.15625,20.328125 0,12.6875 6.15625,20.34375 Q 17.828125,56 27.875,56 q 6.0625,0 10.40625,-2.390625 4.34375,-2.390625 7.125,-7.21875 V 54.6875 h 8.984375 z"
             id="DejaVuSans-103" />
        </defs>
        <g
           transform="matrix(0.12,0,0,-0.12,107.042,50.491875)"
           id="g587">
          <use
             xlink:href="#DejaVuSans-80"
             id="use565" />
          <use
             x="60.271484"
             xlink:href="#DejaVuSans-105"
             id="use567" />
          <use
             x="88.054688"
             xlink:href="#DejaVuSans-110"
             id="use569" />
          <use
             x="151.43359"
             xlink:href="#DejaVuSans-117"
             id="use571" />
          <use
             x="214.8125"
             xlink:href="#DejaVuSans-115"
             id="use573" />
          <use
             x="266.91211"
             xlink:href="#DejaVuSans-32"
             id="use575" />
          <use
             x="298.69922"
             xlink:href="#DejaVuSans-110"
             id="use577" />
          <use
             x="362.07812"
             xlink:href="#DejaVuSans-105"
             id="use579" />
          <use
             x="389.86133"
             xlink:href="#DejaVuSans-103"
             id="use581" />
          <use
             x="453.33789"
             xlink:href="#DejaVuSans-114"
             id="use583" />
          <use
             x="494.45117"
             xlink:href="#DejaVuSans-97"
             id="use585" />
        </g>
      </g>
      <g
         id="line2d_26">
        <path
           d="m 73.442,63.905625 h 24"
           style="fill:none;stroke:#9467bd;stroke-width:1.5;stroke-linecap:square"
           id="path590" />
      </g>
      <g
         id="line2d_27" />
      <g
         id="text_16">
        <!-- Quercus faginea -->
        <defs
           id="defs596">
          <path
             d="m 39.40625,66.21875 q -10.75,0 -17.078125,-8.015625 -6.3125,-8 -6.3125,-21.828125 0,-13.765625 6.3125,-21.78125 6.328125,-8 17.078125,-8 10.734375,0 17.015625,8 6.28125,8.015625 6.28125,21.78125 0,13.828125 -6.28125,21.828125 -6.28125,8.015625 -17.015625,8.015625 z m 13.8125,-64.90625 13,-14.203125 H 54.296875 L 43.5,-1.21875 q -1.609375,-0.09375 -2.46875,-0.140625 -0.84375,-0.0625 -1.625,-0.0625 -15.375,0 -24.59375,10.28125 -9.203125,10.28125 -9.203125,27.515625 0,17.28125 9.203125,27.5625 9.21875,10.28125 24.59375,10.28125 15.328125,0 24.5,-10.28125 9.1875,-10.28125 9.1875,-27.5625 0,-12.6875 -5.109375,-21.734375 Q 62.890625,5.609375 53.21875,1.3125 Z"
             id="DejaVuSans-81" />
          <path
             d="M 37.109375,75.984375 V 68.5 h -8.59375 q -4.828125,0 -6.71875,-1.953125 -1.875,-1.953125 -1.875,-7.03125 V 54.6875 H 34.71875 V 47.703125 H 19.921875 V 0 h -9.03125 V 47.703125 H 2.296875 V 54.6875 h 8.59375 V 58.5 q 0,9.125 4.25,13.296875 4.25,4.1875 13.46875,4.1875 z"
             id="DejaVuSans-102" />
        </defs>
        <g
           transform="matrix(0.12,0,0,-0.12,107.042,68.105625)"
           id="g628">
          <use
             xlink:href="#DejaVuSans-81"
             id="use598" />
          <use
             x="78.710938"
             xlink:href="#DejaVuSans-117"
             id="use600" />
          <use
             x="142.08984"
             xlink:href="#DejaVuSans-101"
             id="use602" />
          <use
             x="203.61328"
             xlink:href="#DejaVuSans-114"
             id="use604" />
          <use
             x="244.69531"
             xlink:href="#DejaVuSans-99"
             id="use606" />
          <use
             x="299.67578"
             xlink:href="#DejaVuSans-117"
             id="use608" />
          <use
             x="363.05469"
             xlink:href="#DejaVuSans-115"
             id="use610" />
          <use
             x="415.1543"
             xlink:href="#DejaVuSans-32"
             id="use612" />
          <use
             x="446.94141"
             xlink:href="#DejaVuSans-102"
             id="use614" />
          <use
             x="482.14648"
             xlink:href="#DejaVuSans-97"
             id="use616" />
          <use
             x="543.42578"
             xlink:href="#DejaVuSans-103"
             id="use618" />
          <use
             x="606.90234"
             xlink:href="#DejaVuSans-105"
             id="use620" />
          <use
             x="634.68555"
             xlink:href="#DejaVuSans-110"
             id="use622" />
          <use
             x="698.06445"
             xlink:href="#DejaVuSans-101"
             id="use624" />
          <use
             x="759.58789"
             xlink:href="#DejaVuSans-97"
             id="use626" />
        </g>
      </g>
      <g
         id="line2d_28">
        <path
           d="m 73.442,81.519375 h 24"
           style="fill:none;stroke:#bcbd22;stroke-width:1.5;stroke-linecap:square"
           id="path631" />
      </g>
      <g
         id="line2d_29" />
      <g
         id="text_17">
        <!-- Quercus ilex -->
        <g
           transform="matrix(0.12,0,0,-0.12,107.042,85.719375)"
           id="g659">
          <use
             xlink:href="#DejaVuSans-81"
             id="use635" />
          <use
             x="78.710938"
             xlink:href="#DejaVuSans-117"
             id="use637" />
          <use
             x="142.08984"
             xlink:href="#DejaVuSans-101"
             id="use639" />
          <use
             x="203.61328"
             xlink:href="#DejaVuSans-114"
             id="use641" />
          <use
             x="244.69531"
             xlink:href="#DejaVuSans-99"
             id="use643" />
          <use
             x="299.67578"
             xlink:href="#DejaVuSans-117"
             id="use645" />
          <use
             x="363.05469"
             xlink:href="#DejaVuSans-115"
             id="use647" />
          <use
             x="415.1543"
             xlink:href="#DejaVuSans-32"
             id="use649" />
          <use
             x="446.94141"
             xlink:href="#DejaVuSans-105"
             id="use651" />
          <use
             x="474.72461"
             xlink:href="#DejaVuSans-108"
             id="use653" />
          <use
             x="502.50781"
             xlink:href="#DejaVuSans-101"
             id="use655" />
          <use
             x="564.01562"
             xlink:href="#DejaVuSans-120"
             id="use657" />
        </g>
      </g>
    </g>
  </g>
  <g
     inkscape:groupmode="layer"
     id="layer2"
     inkscape:label="ps"
     style="display:inline">
    <g
       id="line2d_18"
       inkscape:label="ps"
       style="display:inline">
      <path
         clip-path="url(#p00533b775b)"
         d="M 334.80124,28.957383 69.953771,304.07481"
         style="fill:none;stroke:#ff7f0e;stroke-width:1.5;stroke-linecap:square"
         id="path487" />
    </g>
  </g>
  <defs
     id="defs668">
    <clipPath
       id="p00533b775b">
      <rect
         height="286.26"
         width="385.198"
         x="62.642"
         y="12.96"
         id="rect665" />
    </clipPath>
  </defs>
  <g
     inkscape:groupmode="layer"
     id="layer3"
     inkscape:label="qi"
     style="display:inline">
    <g
       id="line2d_21"
       inkscape:label="qi"
       style="display:inline">
      <path
         clip-path="url(#p00533b775b)"
         d="M 343.40426,214.72262 43.50856,323.00981"
         style="fill:none;stroke:#bcbd22;stroke-width:1.5;stroke-linecap:square"
         id="path496" />
    </g>
  </g>
  <g
     inkscape:groupmode="layer"
     id="layer4"
     inkscape:label="qf"
     style="display:inline">
    <g
       id="line2d_20"
       inkscape:label="qf"
       style="display:inline">
      <path
         clip-path="url(#p00533b775b)"
         d="M 365.14757,164.26834 -1,298.24322"
         style="display:inline;fill:none;stroke:#9467bd;stroke-width:1.5;stroke-linecap:square"
         id="path493" />
    </g>
  </g>
  <g
     inkscape:groupmode="layer"
     id="layer5"
     inkscape:label="pn">
    <g
       id="line2d_19"
       inkscape:label="pn"
       style="display:inline">
      <path
         clip-path="url(#p00533b775b)"
         d="M 419.8735,257.22758 -1,301.05981"
         style="display:inline;fill:none;stroke:#2ca02c;stroke-width:1.5;stroke-linecap:square"
         id="path490" />
    </g>
  </g>
</svg>
